<svg xmlns="http://www.w3.org/2000/svg" version="1.1" xmlns:xlink="http://www.w3.org/1999/xlink" xmlns:svgjs="http://svgjs.dev/svgjs" width="1500" height="1500" viewBox="0 0 1500 1500"><g transform="matrix(1,0,0,1,-0.7499999999998863,-0.7499999999998863)"><svg viewBox="0 0 280 280" data-background-color="#97978d" preserveAspectRatio="xMidYMid meet" height="1500" width="1500" xmlns="http://www.w3.org/2000/svg" xmlns:xlink="http://www.w3.org/1999/xlink"><g id="tight-bounds" transform="matrix(1,0,0,1,0.13999999999998636,0.13999999999998636)"><svg viewBox="0 0 279.72 279.72" height="279.72" width="279.72"><g><svg viewBox="0 0 279.72 279.72" height="279.72" width="279.72"><g><svg viewBox="0 0 279.72 279.72" height="279.72" width="279.72"><g id="textblocktransform"><svg viewBox="0 0 279.72 279.72" height="279.72" width="279.72" id="textblock"><g><svg viewBox="0 0 279.72 279.72" height="279.72" width="279.72"><g transform="matrix(1,0,0,1,73.92936372216631,73.92936372216631)"><svg viewBox="0 0 131.8612725556674 131.8612725556674" height="131.8612725556674" width="131.8612725556674"><g id="icon-0"><svg xmlns="http://www.w3.org/2000/svg" xmlns:xlink="http://www.w3.org/1999/xlink" version="1.1" x="0" y="0" viewBox="0 0 100 100" style="enable-background:new 0 0 100 100;" xml:space="preserve" height="131.8612725556674" width="131.8612725556674" class="icon-jxe-0" data-fill-palette-color="accent" id="jxe-0"><g fill="#636365" data-fill-palette-color="accent"><path d="M68 17C70.7 17 73.1 18.2 74.7 20H74.5C75.7 20.1 76.8 20.4 77.9 20.9 78.2 20.1 78.6 19.4 79.3 18.9 81.2 17.3 84.1 17.7 85.6 19.6S86.8 24.4 84.9 25.9C84.2 26.4 83.4 26.8 82.6 26.9 83.4 30.2 82.3 33.8 79.5 36 78.7 36.7 77.8 37.1 76.9 37.5V65.4C81.5 66.5 85.3 69.9 86.8 74.5 89.7 75.3 92 77.4 92.9 80.2 95.7 80.7 97.9 83.1 97.9 86.1 97.9 89.4 95.2 92.1 91.9 92.1H74.7C73.1 93.9 70.7 95.1 68 95.1H58.2C57.2 96.9 55.2 98.1 53 98.1H8C4.7 98.1 2 95.4 2 92.1S4.7 86.1 8 86.1H8.5C9.7 82.6 13.1 80.1 17 80.1 17.7 80.1 18.5 80.2 19.2 80.4 20 78.1 21.3 76.1 23 74.6V26C23 21 27 17 32 17zM38 39.5V54.5C38 55.3 38.7 56 39.5 56S41 55.3 41 54.5V39.5C41 38.7 40.3 38 39.5 38S38 38.7 38 39.5M72.5 5C75 5 77 7 77 9.5S75 14 72.5 14 68 12 68 9.5 70 5 72.5 5M72.5 8C71.7 8 71 8.7 71 9.5S71.7 11 72.5 11 74 10.3 74 9.5 73.3 8 72.5 8M81 23.4C81.5 24 82.5 24.1 83.1 23.6S83.8 22.1 83.3 21.5 81.8 20.8 81.2 21.3 80.5 22.7 81 23.4M77 68.4V86C77 87.1 76.8 88.1 76.5 89H92C93.7 89 95 87.7 95 86S93.7 83 92 83H91.9C91.2 83 90.5 82.5 90.4 81.8 89.9 79.4 87.9 77.5 85.5 77.1 84.9 77 84.4 76.6 84.3 76 83.3 72.3 80.5 69.5 77 68.4M32 74C27 74 22.6 77.6 21.7 82.5 21.6 83 21.3 83.3 20.9 83.6 20.5 83.8 20 83.8 19.6 83.6 18.8 83.2 17.9 83 17 83 14.1 83 11.6 85.1 11.1 88 11 88.5 10.8 88.8 10.4 89.1S9.5 89.4 9.1 89.2C8.7 89.1 8.4 89 8 89 6.3 89 5 90.3 5 92S6.3 95 8 95H53C54.7 95 56 93.7 56 92S54.7 89 53 89C52.6 89 52.1 89.1 51.7 89.3 51.1 89.6 50.4 89.5 50 89S49.4 87.9 49.7 87.3C49.9 86.9 50 86.5 50 86 50 84.3 48.7 83 47 83 46.2 83 45.5 83.3 44.9 83.8 44.5 84.2 43.9 84.3 43.4 84.1S42.5 83.5 42.4 82.9C41.6 77.8 37.2 74 32 74M87.5 2C83.4 2 80 5.4 80 9.5S83.4 17 87.5 17 95 13.6 95 9.5 91.6 2 87.5 2M87.5 5C90 5 92 7 92 9.5S90 14 87.5 14 83 12 83 9.5 85 5 87.5 5M78.7 25.2C76.6 22.6 72.8 22.2 70.3 24.3S67.3 30.2 69.4 32.7C71.5 35.3 75.3 35.7 77.8 33.6 80.3 31.6 80.8 27.8 78.7 25.2M62 36.5C62 34 60 32 57.5 32H51.5C50.7 32 50 32.7 50 33.5S50.7 35 51.5 35H57.5C58.3 35 59 35.7 59 36.5V60.5C59 61.3 59.7 62 60.5 62S62 61.3 62 60.5z" fill="#636365" data-fill-palette-color="accent"></path></g></svg></g></svg></g><g id="text-0"><path d="M30.038 99.167v0c-0.749 2.157-1.812 3.87-3.189 5.141-1.374 1.264-2.985 2.183-4.831 2.757v0l-1.17-3.094c1.588-0.513 2.91-1.234 3.966-2.161 1.065-0.932 1.869-2.182 2.414-3.748v0c0.671-1.932 0.717-3.567 0.139-4.905-0.572-1.335-1.628-2.271-3.169-2.806v0c-0.854-0.297-1.634-0.381-2.341-0.252-0.707 0.129-1.386 0.49-2.038 1.084-0.652 0.594-1.313 1.44-1.982 2.538v0l-1.263 2.021c-0.956 1.488-1.938 2.69-2.947 3.606-1.009 0.916-2.103 1.499-3.284 1.751-1.183 0.258-2.458 0.15-3.826-0.325v0c-1.592-0.553-2.806-1.396-3.643-2.528-0.833-1.124-1.297-2.458-1.394-4.002-0.094-1.551 0.162-3.199 0.768-4.945v0c0.707-2.035 1.685-3.648 2.933-4.841 1.251-1.199 2.772-2.048 4.564-2.547v0l0.926 3.051c-1.277 0.362-2.399 0.972-3.366 1.831-0.961 0.86-1.714 2.077-2.261 3.65v0c-0.598 1.72-0.697 3.207-0.297 4.461 0.408 1.249 1.33 2.124 2.768 2.623v0c0.847 0.294 1.621 0.355 2.322 0.181 0.694-0.176 1.358-0.575 1.991-1.197 0.631-0.615 1.271-1.443 1.921-2.484v0l1.263-2.021c0.994-1.619 2.016-2.864 3.067-3.737 1.06-0.876 2.169-1.408 3.328-1.596 1.159-0.187 2.409-0.048 3.75 0.418v0c1.643 0.571 2.939 1.438 3.888 2.602 0.955 1.166 1.526 2.555 1.714 4.167 0.19 1.606-0.05 3.375-0.721 5.307z" fill="#c8c8c8" data-fill-palette-color="primary"></path><path d="M52.015 62.068v0c-1.215 1.429-2.633 2.395-4.256 2.898-1.618 0.498-3.316 0.517-5.093 0.059-1.777-0.449-3.517-1.397-5.221-2.845v0c-1.704-1.448-2.92-3.012-3.649-4.694-0.734-1.676-0.988-3.355-0.763-5.036 0.235-1.682 0.959-3.238 2.174-4.667v0c1.219-1.434 2.638-2.4 4.255-2.898 1.623-0.493 3.323-0.516 5.1-0.067 1.772 0.454 3.51 1.405 5.214 2.853v0c1.704 1.448 2.922 3.01 3.656 4.685 0.735 1.686 0.987 3.367 0.757 5.045-0.23 1.677-0.955 3.233-2.174 4.667zM49.809 60.193v0c1.149-1.351 1.667-2.806 1.555-4.364-0.107-1.553-1.012-3.054-2.716-4.502v0l-2.299-1.954c-1.704-1.448-3.331-2.099-4.88-1.954-1.55 0.145-2.9 0.893-4.049 2.245v0c-1.127 1.326-1.643 2.773-1.549 4.342 0.098 1.564 0.999 3.069 2.702 4.517v0l2.299 1.954c1.704 1.448 3.335 2.094 4.894 1.939 1.569-0.156 2.916-0.897 4.043-2.223z" fill="#c8c8c8" data-fill-palette-color="primary"></path><path d="M83.316 36.909v0c-1.962 1.072-3.759 1.404-5.392 0.995-1.642-0.411-2.932-1.476-3.87-3.193v0c-0.639-1.169-0.889-2.314-0.751-3.435 0.136-1.112 0.668-2.193 1.597-3.242 0.929-1.05 2.291-2.065 4.086-3.046v0l3.658-1.999-1.002-1.834c-0.717-1.312-1.622-2.118-2.716-2.419-1.1-0.297-2.389-0.042-3.867 0.766v0c-1.103 0.603-1.9 1.363-2.389 2.282-0.49 0.918-0.757 1.931-0.802 3.04v0l-2.606-0.667c-0.028-1.255 0.31-2.543 1.013-3.864 0.706-1.315 1.897-2.431 3.573-3.347v0c2.224-1.216 4.262-1.617 6.114-1.203 1.855 0.419 3.317 1.606 4.386 3.562v0l5.563 10.179 2.12-1.158 1.373 2.513-1.619 0.885c-1.026 0.56-1.92 0.709-2.684 0.445-0.764-0.264-1.429-0.772-1.994-1.524v0l-0.153-0.195-0.179 0.097c0.234 1.336 0.037 2.555-0.592 3.658-0.623 1.099-1.578 2.001-2.867 2.704zM82.452 34.222v0c0.954-0.521 1.712-1.133 2.273-1.834 0.565-0.696 0.918-1.416 1.062-2.16 0.137-0.741 0.036-1.422-0.303-2.042v0l-1.667-3.05-3.801 2.077c-1.628 0.89-2.693 1.782-3.196 2.676-0.499 0.9-0.501 1.803-0.006 2.71v0l0.41 0.751c0.495 0.906 1.214 1.428 2.156 1.564 0.945 0.142 1.969-0.089 3.072-0.692z" fill="#c8c8c8" data-fill-palette-color="primary"></path><path d="M121.867 31.45l-3.228 0.467-4.19-28.943 3.228-0.467 0.493 3.399 0.161-0.023c0.346-1.403 1.002-2.497 1.966-3.282 0.958-0.784 2.149-1.279 3.575-1.485v0c1.755-0.254 3.329-0.029 4.723 0.676 1.401 0.71 2.562 1.83 3.483 3.358 0.922 1.528 1.544 3.412 1.869 5.651v0c0.32 2.213 0.256 4.189-0.193 5.93-0.447 1.747-1.243 3.156-2.385 4.228-1.136 1.071-2.582 1.733-4.337 1.988v0c-1.426 0.206-2.69 0.06-3.792-0.44-1.109-0.499-2.067-1.352-2.873-2.561v0l-0.162 0.023zM125.724 20.17v0c1.836-0.266 3.195-1.05 4.078-2.352 0.884-1.295 1.191-2.874 0.921-4.737v0l-0.514-3.551c-0.27-1.863-1.012-3.29-2.226-4.282-1.215-0.991-2.74-1.354-4.577-1.088v0c-0.968 0.14-1.838 0.445-2.607 0.913-0.777 0.469-1.364 1.035-1.763 1.697-0.399 0.662-0.541 1.383-0.428 2.163v0l1.124 7.768c0.129 0.888 0.481 1.613 1.057 2.175 0.576 0.562 1.302 0.951 2.177 1.168 0.87 0.224 1.789 0.266 2.758 0.126z" fill="#c8c8c8" data-fill-palette-color="primary"></path><path d="M204.726 40.576l-13.782-7.234 13.249-25.245 3.033 1.592-11.843 22.564 10.75 5.642z" fill="#c8c8c8" data-fill-palette-color="primary"></path><path d="M226.899 61.176v0c-1.485-1.671-2.212-3.348-2.18-5.031 0.032-1.692 0.78-3.189 2.242-4.489v0c0.996-0.885 2.055-1.385 3.179-1.502 1.114-0.117 2.287 0.159 3.518 0.828 1.231 0.669 2.526 1.769 3.885 3.298v0l2.77 3.116 1.562-1.388c1.118-0.993 1.7-2.056 1.747-3.189 0.043-1.138-0.495-2.337-1.614-3.597v0c-0.835-0.94-1.755-1.545-2.76-1.817-1.004-0.271-2.052-0.304-3.142-0.098v0l0.065-2.69c1.217-0.309 2.548-0.269 3.993 0.12 1.44 0.393 2.794 1.303 4.063 2.731v0c1.684 1.895 2.532 3.791 2.545 5.688 0.008 1.902-0.821 3.593-2.487 5.074v0l-8.67 7.705 1.604 1.806-2.141 1.903-1.225-1.379c-0.776-0.874-1.122-1.712-1.036-2.516 0.086-0.804 0.432-1.565 1.037-2.286v0l0.156-0.193-0.136-0.152c-1.249 0.528-2.481 0.609-3.696 0.244-1.211-0.36-2.304-1.089-3.279-2.186zM229.323 59.73v0c0.722 0.813 1.488 1.414 2.298 1.804 0.805 0.394 1.586 0.577 2.343 0.549 0.753-0.033 1.393-0.284 1.922-0.753v0l2.598-2.309-2.878-3.238c-1.232-1.387-2.341-2.225-3.324-2.514-0.989-0.285-1.87-0.084-2.642 0.603v0l-0.64 0.568c-0.772 0.686-1.119 1.503-1.04 2.452 0.074 0.953 0.528 1.899 1.363 2.838z" fill="#c8c8c8" data-fill-palette-color="primary"></path><path d="M250.329 100.642v0c-0.522-1.343-0.663-2.607-0.424-3.794 0.236-1.193 0.853-2.318 1.849-3.376v0l-0.059-0.152-3.202 1.244-1.182-3.04 28.181-10.95 1.182 3.04-11.735 4.56 0.06 0.152c1.445 0.022 2.658 0.414 3.639 1.177 0.979 0.757 1.73 1.807 2.252 3.15v0c0.642 1.653 0.777 3.238 0.404 4.753-0.377 1.525-1.207 2.908-2.489 4.15-1.282 1.242-2.977 2.272-5.087 3.092v0c-2.084 0.81-4.024 1.192-5.821 1.146-1.803-0.043-3.355-0.501-4.656-1.373-1.299-0.866-2.269-2.126-2.912-3.779zM252.741 98.743v0c0.672 1.729 1.741 2.877 3.208 3.444 1.461 0.57 3.068 0.514 4.823-0.168v0l3.345-1.299c1.755-0.682 2.978-1.726 3.671-3.133 0.693-1.407 0.703-2.974 0.031-4.703v0c-0.354-0.912-0.846-1.691-1.476-2.336-0.632-0.651-1.315-1.096-2.05-1.336-0.735-0.239-1.469-0.216-2.204 0.069v0l-7.316 2.843c-0.836 0.325-1.463 0.831-1.881 1.519-0.418 0.687-0.634 1.482-0.649 2.384-0.023 0.898 0.143 1.804 0.498 2.716z" fill="#c8c8c8" data-fill-palette-color="primary"></path><path d="M0 140.063c0-6.378 5.171-11.549 11.549-11.549 6.378 0 11.549 5.171 11.549 11.549 0 6.378-5.171 11.549-11.549 11.549-6.378 0-11.549-5.171-11.549-11.549z" fill="#c8c8c8" data-fill-palette-color="primary"></path><path d="M256.622 140.063c0-6.378 5.171-11.549 11.549-11.549 6.378 0 11.549 5.171 11.549 11.549 0 6.378-5.171 11.549-11.549 11.549-6.378 0-11.549-5.171-11.549-11.549z" fill="#c8c8c8" data-fill-palette-color="primary"></path></g><g id="text-1"><path d="M11.622 196.434l-5.209-15.659 28.689-9.542 1.148 3.453-25.651 8.531 4.06 12.207z" fill="#636365" data-fill-palette-color="secondary"></path><path d="M20.525 213.334v0c-1.236-2.016-1.683-3.902-1.341-5.659 0.352-1.754 1.414-3.174 3.187-4.26v0c1.205-0.739 2.4-1.065 3.585-0.979 1.191 0.083 2.366 0.59 3.527 1.521 1.166 0.927 2.316 2.315 3.448 4.163v0l2.307 3.763 1.877-1.15c1.356-0.831 2.164-1.833 2.426-3.006 0.258-1.178-0.08-2.53-1.014-4.053v0c-0.696-1.136-1.543-1.939-2.542-2.411-0.999-0.472-2.088-0.701-3.267-0.688v0l0.573-2.79c1.33-0.106 2.711 0.183 4.143 0.868 1.434 0.675 2.68 1.876 3.739 3.602v0c1.403 2.289 1.932 4.427 1.589 6.415-0.338 1.985-1.518 3.597-3.54 4.836v0l-10.49 6.43 1.337 2.181-2.581 1.583-1.017-1.66c-0.65-1.06-0.856-2.002-0.62-2.825 0.243-0.826 0.744-1.556 1.504-2.189v0l0.199-0.182-0.111-0.182c-1.4 0.316-2.7 0.172-3.9-0.432-1.196-0.598-2.202-1.564-3.018-2.896zM23.329 212.272v0c0.604 0.985 1.29 1.76 2.059 2.325 0.769 0.565 1.551 0.898 2.347 1.001 0.79 0.106 1.504-0.037 2.141-0.428v0l3.146-1.928-2.397-3.911c-1.026-1.674-2.027-2.755-3.003-3.241-0.975-0.486-1.932-0.441-2.871 0.134v0l-0.774 0.474c-0.939 0.575-1.454 1.366-1.547 2.372-0.093 1.006 0.207 2.073 0.899 3.202z" fill="#636365" data-fill-palette-color="secondary"></path><path d="M42.195 240.494l-2.939-3.183c-0.807-0.874-1.17-1.778-1.089-2.712 0.076-0.94 0.506-1.771 1.289-2.495v0l11.488-10.608-2.496-2.704 2.231-2.061 1.411 1.528c0.512 0.554 0.97 0.83 1.374 0.827 0.409-0.008 0.888-0.265 1.437-0.773v0l3.055-2.821 2.117 2.291-4.546 4.198 3.326 3.602-2.231 2.061-3.327-3.602-11.967 11.051 3.091 3.347z" fill="#636365" data-fill-palette-color="secondary"></path><path d="M55.562 251.629l-2.782-2.067 19.113-25.725 2.782 2.067-7.951 10.702 0.139 0.104c1.2-0.692 2.421-1.042 3.663-1.05 1.252-0.01 2.551 0.486 3.898 1.487v0c1.849 1.374 2.87 3.059 3.063 5.056 0.192 1.997-0.52 4.084-2.137 6.26v0l-8.554 11.513-2.782-2.067 8.189-11.022c1.187-1.598 1.74-3.059 1.656-4.382-0.078-1.319-0.788-2.478-2.13-3.475v0c-0.742-0.551-1.542-0.955-2.401-1.212-0.853-0.253-1.676-0.28-2.467-0.081-0.801 0.201-1.485 0.683-2.052 1.447v0z" fill="#636365" data-fill-palette-color="secondary"></path><path d="M88.547 270.735v0c-1.871-0.775-3.316-1.895-4.335-3.361-1.016-1.472-1.576-3.175-1.68-5.108-0.104-1.933 0.296-3.993 1.2-6.178v0c0.907-2.191 2.081-3.934 3.521-5.228 1.44-1.294 3.039-2.1 4.796-2.417 1.759-0.323 3.575-0.098 5.445 0.677v0c1.84 0.762 3.246 1.851 4.219 3.269 0.976 1.426 1.508 3.047 1.594 4.863 0.093 1.818-0.263 3.701-1.069 5.647v0l-0.631 1.526-14.844-6.144-0.398 0.96c-0.738 1.783-0.813 3.492-0.224 5.126 0.586 1.64 1.84 2.858 3.762 3.653v0c1.306 0.541 2.573 0.705 3.801 0.492 1.228-0.212 2.347-0.783 3.356-1.711v0l1.597 2.592c-1.24 1.112-2.748 1.815-4.525 2.109-1.777 0.294-3.638 0.039-5.585-0.767zM87.874 255.596l-0.117 0.283 11.406 4.721 0.183-0.442c0.507-1.224 0.719-2.387 0.638-3.487-0.078-1.091-0.426-2.063-1.044-2.915-0.612-0.849-1.464-1.5-2.557-1.952v0c-1.149-0.476-2.283-0.632-3.402-0.47-1.113 0.165-2.119 0.616-3.02 1.353-0.895 0.74-1.59 1.71-2.087 2.909z" fill="#636365" data-fill-palette-color="secondary"></path><path d="M114.553 277.905l-3.402-0.663 4.279-21.941 3.402 0.663-0.789 4.042 0.21 0.041c0.398-0.656 0.924-1.239 1.577-1.748 0.659-0.502 1.452-0.859 2.38-1.073 0.923-0.222 1.981-0.216 3.175 0.016v0l1.31 0.256-0.663 3.402-1.991-0.389c-1.221-0.238-2.303-0.279-3.247-0.124-0.944 0.155-1.702 0.457-2.275 0.907-0.572 0.449-0.927 1.027-1.065 1.734v0z" fill="#636365" data-fill-palette-color="secondary"></path><path d="M161.487 278.526v0c-1.966 0.316-3.693 0.215-5.179-0.303-1.488-0.525-2.682-1.358-3.582-2.501-0.899-1.143-1.47-2.469-1.713-3.979v0c-0.238-1.483-0.143-2.799 0.284-3.948 0.427-1.156 1.047-2.178 1.861-3.066 0.807-0.887 1.681-1.684 2.62-2.393v0c-1.201-0.922-2.202-1.904-3.002-2.945-0.794-1.042-1.296-2.218-1.507-3.526v0c-0.216-1.342-0.088-2.605 0.383-3.789 0.463-1.189 1.227-2.197 2.291-3.021 1.071-0.833 2.374-1.373 3.911-1.62v0c1.422-0.229 2.714-0.157 3.875 0.214 1.153 0.365 2.115 0.978 2.887 1.838 0.764 0.855 1.248 1.923 1.454 3.204v0c0.211 1.315 0.089 2.505-0.366 3.569-0.461 1.072-1.149 2.077-2.065 3.017-0.917 0.932-1.945 1.858-3.085 2.777v0l7.874 6.147c0.255-1.156 0.396-2.373 0.425-3.65 0.029-1.278-0.03-2.545-0.177-3.802v0l5.817-0.935 0.466 2.898-3.029 0.487c-0.004 1.26-0.088 2.475-0.251 3.644-0.163 1.169-0.411 2.262-0.743 3.278v0l6.813 5.265-4.448 0.715-3.773-2.986c-0.325 0.548-0.805 1.2-1.441 1.955-0.641 0.764-1.496 1.465-2.563 2.105-1.061 0.638-2.406 1.089-4.036 1.351zM161.309 275.488v0c1.429-0.23 2.632-0.709 3.61-1.437 0.977-0.728 1.763-1.622 2.356-2.681v0l-9.39-7.359c-0.707 0.527-1.355 1.099-1.944 1.716-0.581 0.623-1.015 1.33-1.301 2.119-0.279 0.788-0.33 1.739-0.15 2.853v0l0.103 0.645c0.252 1.57 0.985 2.726 2.199 3.466 1.213 0.741 2.719 0.967 4.517 0.678zM158.402 260.418v0c0.835-0.63 1.611-1.302 2.329-2.016 0.718-0.714 1.286-1.463 1.704-2.246 0.418-0.783 0.565-1.56 0.441-2.332v0l-0.082-0.513c-0.124-0.772-0.418-1.399-0.881-1.882-0.455-0.477-1.011-0.811-1.668-1.002-0.656-0.184-1.356-0.216-2.101-0.096v0c-1.228 0.197-2.173 0.741-2.835 1.633-0.654 0.897-0.89 1.915-0.706 3.055v0l0.082 0.514c0.138 0.859 0.538 1.679 1.201 2.46 0.67 0.787 1.509 1.595 2.516 2.425z" fill="#636365" data-fill-palette-color="secondary"></path><path d="M220.815 254.783l-14.241 8.34-15.278-26.089 3.14-1.839 13.661 23.327 11.101-6.501z" fill="#636365" data-fill-palette-color="secondary"></path><path d="M237.487 240.675v0c-1.444 1.371-3.047 2.229-4.811 2.573-1.773 0.344-3.569 0.175-5.387-0.506-1.819-0.681-3.542-1.879-5.171-3.594v0c-1.633-1.72-2.743-3.505-3.33-5.357-0.587-1.851-0.661-3.651-0.221-5.399 0.43-1.748 1.366-3.308 2.81-4.679v0c1.444-1.371 3.05-2.226 4.817-2.565 1.763-0.344 3.557-0.178 5.381 0.499 1.819 0.681 3.545 1.882 5.177 3.601v0c1.629 1.715 2.736 3.498 3.324 5.349 0.582 1.856 0.658 3.658 0.228 5.407-0.434 1.743-1.373 3.301-2.817 4.671zM235.367 238.443v0c1.36-1.292 2.071-2.763 2.133-4.415 0.062-1.652-0.722-3.335-2.351-5.05v0l-2.211-2.328c-1.629-1.715-3.269-2.584-4.922-2.607-1.653-0.023-3.159 0.611-4.519 1.902v0c-1.34 1.273-2.049 2.742-2.126 4.408-0.072 1.661 0.707 3.349 2.336 5.065v0l2.211 2.328c1.629 1.715 3.274 2.579 4.937 2.593 1.668 0.009 3.172-0.622 4.512-1.896z" fill="#636365" data-fill-palette-color="secondary"></path><path d="M257.928 214.459l-2.197 3.374-23.015-5.625 1.892-2.904 11.423 2.782 7.713 2.129 0.117-0.179-5.064-6.194-7.118-9.393 1.82-2.793z" fill="#636365" data-fill-palette-color="secondary"></path><path d="M271.081 188.624v0c-0.723 1.891-1.804 3.366-3.242 4.425-1.444 1.056-3.131 1.662-5.061 1.818-1.93 0.157-3.999-0.187-6.208-1.032v0c-2.215-0.847-3.989-1.973-5.321-3.378-1.333-1.405-2.181-2.981-2.547-4.728-0.371-1.75-0.195-3.571 0.529-5.462v0c0.711-1.86 1.762-3.295 3.153-4.306 1.399-1.014 3.005-1.59 4.818-1.725 1.815-0.142 3.707 0.163 5.674 0.915v0l1.543 0.59-5.74 15.004 0.972 0.372c1.803 0.689 3.512 0.718 5.129 0.085 1.624-0.63 2.807-1.917 3.55-3.859v0c0.505-1.32 0.635-2.591 0.389-3.813-0.246-1.222-0.846-2.324-1.802-3.308v0l2.548-1.667c1.145 1.209 1.889 2.698 2.231 4.466 0.342 1.768 0.137 3.636-0.615 5.603zM255.966 189.708l0.286 0.109 4.41-11.53-0.448-0.171c-1.238-0.473-2.405-0.654-3.503-0.543-1.089 0.107-2.05 0.482-2.885 1.123-0.832 0.635-1.459 1.504-1.882 2.609v0c-0.444 1.162-0.57 2.299-0.377 3.413 0.195 1.108 0.673 2.102 1.434 2.983 0.764 0.874 1.752 1.543 2.965 2.007z" fill="#636365" data-fill-palette-color="secondary"></path></g></svg></g></svg></g></svg></g></svg></g><defs></defs></svg><rect width="279.72" height="279.72" fill="none" stroke="none" visibility="hidden"></rect></g></svg></g></svg>